<svg xmlns="http://www.w3.org/2000/svg" xmlns:xlink="http://www.w3.org/1999/xlink" width="1000" zoomAndPan="magnify" viewBox="0 0 750 749.999995" height="1000" preserveAspectRatio="xMidYMid meet" version="1.0"><defs><clipPath id="72f546d370"><path d="M 17.8125 0 L 399 0 L 399 750 L 17.8125 750 Z M 17.8125 0 " clip-rule="nonzero"/></clipPath><clipPath id="ef3c2c57f3"><path d="M 413 0 L 732.5625 0 L 732.5625 750 L 413 750 Z M 413 0 " clip-rule="nonzero"/></clipPath></defs><g clip-path="url(#72f546d370)"><path fill="#dfd716" d="M 392.5 0.265625 C 381.757812 0.265625 370.914062 0.730469 360.261719 1.632812 C 357.179688 1.894531 354.816406 4.472656 354.816406 7.5625 L 354.816406 34.0625 C 354.816406 48.351562 344.648438 60.746094 330.636719 63.542969 C 316.546875 66.332031 302.367188 58.757812 296.875 45.507812 L 286.734375 21.023438 C 285.558594 18.175781 282.40625 16.695312 279.441406 17.628906 C 258.980469 24.101562 238.917969 32.414062 219.824219 42.347656 C 217.082031 43.769531 215.890625 47.054688 217.070312 49.902344 L 227.359375 74.753906 C 232.753906 87.78125 228.15625 102.929688 216.421875 110.78125 C 204.363281 118.855469 188.179688 117.273438 177.90625 107.015625 L 159.402344 88.511719 C 157.21875 86.328125 153.726562 86.175781 151.367188 88.167969 C 134.914062 102.015625 119.5625 117.367188 105.730469 133.800781 C 103.738281 136.164062 103.886719 139.65625 106.078125 141.835938 L 124.808594 160.574219 C 134.933594 170.699219 136.496094 186.679688 128.519531 198.578125 C 120.554688 210.460938 105.191406 215.121094 91.960938 209.640625 L 67.46875 199.492188 C 64.617188 198.316406 61.339844 199.503906 59.914062 202.242188 C 49.980469 221.324219 41.660156 241.386719 35.1875 261.871094 C 34.257812 264.816406 35.726562 267.976562 38.578125 269.160156 L 63.058594 279.300781 C 76.3125 284.789062 83.898438 298.984375 81.089844 313.042969 C 78.289062 327.074219 65.875 337.257812 51.566406 337.257812 L 25.117188 337.257812 C 22.023438 337.257812 19.453125 339.621094 19.191406 342.703125 C 18.277344 353.359375 17.8125 364.214844 17.8125 374.953125 C 17.8125 385.6875 18.277344 396.539062 19.1875 407.214844 C 19.449219 410.296875 22.023438 412.65625 25.109375 412.65625 L 51.554688 412.65625 C 65.867188 412.65625 78.292969 422.847656 81.101562 436.890625 C 83.902344 450.945312 76.320312 465.125 63.085938 470.609375 L 38.582031 480.757812 C 35.734375 481.941406 34.257812 485.101562 35.191406 488.046875 C 41.664062 508.535156 49.984375 528.59375 59.917969 547.675781 C 61.339844 550.410156 64.625 551.601562 67.472656 550.421875 L 92 540.265625 C 105.203125 534.796875 120.566406 539.4375 128.515625 551.308594 C 136.503906 563.21875 134.933594 579.222656 124.789062 589.367188 L 106.082031 608.074219 C 103.898438 610.257812 103.746094 613.746094 105.738281 616.109375 C 119.566406 632.542969 134.921875 647.894531 151.371094 661.742188 C 153.726562 663.722656 157.21875 663.582031 159.410156 661.398438 L 178.132812 642.671875 C 188.261719 632.53125 204.269531 630.984375 216.171875 638.949219 C 228.050781 646.910156 232.695312 662.277344 227.222656 675.488281 L 217.070312 699.996094 C 215.890625 702.84375 217.082031 706.128906 219.816406 707.550781 C 238.917969 717.484375 258.980469 725.800781 279.441406 732.269531 C 282.40625 733.199219 285.550781 731.722656 286.734375 728.875 L 297.261719 703.46875 C 302.535156 690.746094 316.15625 683.464844 329.65625 686.15625 L 331.566406 686.535156 C 345.039062 689.222656 354.816406 701.144531 354.816406 714.882812 L 354.816406 742.328125 C 354.816406 745.421875 357.179688 747.992188 360.261719 748.257812 C 370.914062 749.164062 381.757812 749.628906 392.5 749.628906 C 395.789062 749.628906 398.449219 746.960938 398.449219 743.679688 L 398.449219 522.503906 C 398.449219 519.21875 395.789062 516.554688 392.5 516.554688 C 314.417969 516.554688 250.890625 453.027344 250.890625 374.945312 C 250.890625 296.863281 314.417969 233.339844 392.5 233.339844 C 395.789062 233.339844 398.449219 230.671875 398.449219 227.390625 L 398.449219 6.214844 C 398.449219 2.929688 395.789062 0.265625 392.5 0.265625 Z M 386.550781 221.5625 C 304.65625 224.703125 238.996094 292.300781 238.996094 374.953125 C 238.996094 457.601562 304.65625 525.203125 386.550781 528.34375 L 386.550781 737.695312 C 379.9375 737.589844 373.292969 737.304688 366.714844 736.839844 L 366.714844 714.894531 C 366.714844 695.503906 352.914062 678.679688 333.890625 674.882812 L 331.984375 674.503906 C 312.902344 670.695312 293.695312 680.980469 286.265625 698.925781 L 277.84375 719.25 C 261.542969 713.824219 245.550781 707.191406 230.15625 699.480469 L 238.210938 680.046875 C 245.839844 661.613281 239.359375 640.175781 222.785156 629.070312 C 206.179688 617.941406 183.863281 620.117188 169.71875 634.261719 L 154.882812 649.097656 C 141.886719 637.820312 129.644531 625.578125 118.378906 612.59375 L 133.1875 597.777344 C 147.339844 583.632812 149.523438 561.300781 138.386719 544.683594 C 127.289062 528.117188 105.84375 521.632812 87.4375 529.265625 L 67.984375 537.320312 C 60.269531 521.9375 53.636719 505.941406 48.207031 489.632812 L 67.632812 481.585938 C 86.097656 473.9375 96.671875 454.160156 92.765625 434.546875 C 88.855469 414.960938 71.523438 400.742188 51.554688 400.742188 L 30.613281 400.742188 C 30.019531 392.191406 29.707031 383.53125 29.707031 374.953125 C 29.707031 366.375 30.019531 357.714844 30.613281 349.144531 L 51.574219 349.144531 C 71.53125 349.144531 88.859375 334.933594 92.757812 315.359375 C 96.671875 295.742188 86.097656 275.949219 67.617188 268.296875 L 48.207031 260.253906 C 53.636719 243.945312 60.269531 227.949219 67.984375 212.566406 L 87.40625 220.617188 C 105.851562 228.257812 127.289062 221.761719 138.40625 205.1875 C 149.527344 188.585938 147.351562 166.277344 133.21875 152.144531 L 118.378906 137.300781 C 129.644531 124.316406 141.886719 112.074219 154.875 100.796875 L 169.496094 115.414062 C 183.761719 129.671875 206.285156 131.890625 223.035156 120.65625 C 239.472656 109.664062 245.914062 88.433594 238.347656 70.1875 L 230.160156 50.421875 C 245.554688 42.710938 261.550781 36.078125 277.847656 30.648438 L 285.890625 50.058594 C 293.550781 68.539062 313.359375 79.109375 332.964844 75.207031 C 352.523438 71.308594 366.71875 54.007812 366.71875 34.0625 L 366.71875 13.066406 C 373.300781 12.601562 379.941406 12.324219 386.558594 12.210938 L 386.558594 221.5625 Z M 386.550781 221.5625 " fill-opacity="1" fill-rule="nonzero"/></g><g clip-path="url(#ef3c2c57f3)"><path fill="#dfd716" d="M 419.433594 0.265625 C 416.144531 0.265625 413.484375 2.929688 413.484375 6.214844 L 413.484375 743.683594 C 413.484375 746.96875 416.144531 749.632812 419.433594 749.632812 L 481.652344 749.632812 C 508.433594 749.632812 530.230469 727.851562 530.230469 701.085938 L 530.230469 622.335938 C 530.230469 612.597656 536.117188 603.71875 545.226562 599.710938 C 658.871094 549.746094 732.304688 437.257812 732.304688 313.144531 C 732.3125 140.625 591.953125 0.265625 419.433594 0.265625 Z M 469.128906 332.226562 C 479.09375 332.226562 487.507812 344.546875 487.507812 359.128906 C 487.507812 373.714844 479.09375 386.035156 469.128906 386.035156 C 459.167969 386.035156 450.75 373.714844 450.75 359.128906 C 450.75 344.546875 459.167969 332.226562 469.128906 332.226562 Z M 438.855469 359.128906 C 438.855469 380.527344 452.433594 397.929688 469.128906 397.929688 C 485.828125 397.929688 499.40625 380.527344 499.40625 359.128906 C 499.40625 341.933594 490.621094 327.332031 478.511719 322.257812 C 483.785156 315.542969 495.285156 305.738281 517.648438 305.738281 C 534.691406 305.738281 548.644531 312.65625 558 325.738281 C 571.160156 344.128906 573.507812 372.597656 564.140625 400.035156 C 555.246094 426.082031 530.21875 445.359375 510.785156 456.941406 C 488.59375 470.175781 474.796875 494.117188 474.796875 519.421875 L 474.796875 571.300781 L 425.367188 571.300781 L 425.367188 306.191406 C 438.210938 307.867188 448.523438 314.796875 457.621094 323.257812 C 446.621094 329.074219 438.855469 342.957031 438.855469 359.128906 Z M 425.382812 695.136719 L 425.382812 667.65625 L 518.339844 667.65625 L 518.339844 695.136719 Z M 518.332031 655.765625 L 425.382812 655.765625 L 425.382812 628.285156 L 518.339844 628.285156 L 518.339844 655.765625 Z M 498.972656 616.386719 L 425.382812 616.386719 L 425.382812 583.199219 L 487.039062 583.199219 C 493.617188 583.199219 498.972656 588.023438 498.972656 593.953125 Z M 481.652344 737.738281 L 425.382812 737.738281 L 425.382812 707.03125 L 517.808594 707.03125 C 514.949219 724.417969 499.847656 737.738281 481.652344 737.738281 Z M 540.441406 588.820312 C 528.886719 593.898438 520.882812 604.363281 518.867188 616.386719 L 510.863281 616.386719 L 510.863281 593.957031 C 510.863281 581.46875 500.171875 571.308594 487.035156 571.308594 L 486.695312 571.308594 L 486.695312 519.421875 C 486.695312 498.28125 498.257812 478.261719 516.871094 467.160156 C 538.019531 454.558594 565.328125 433.34375 575.394531 403.878906 C 585.980469 372.871094 583.019531 340.28125 567.671875 318.820312 C 556.152344 302.710938 538.382812 293.84375 517.644531 293.84375 C 488.847656 293.84375 474.324219 307.570312 467.890625 316.554688 C 456.746094 305.761719 443.125 296.050781 425.375 294.222656 L 425.375 12.222656 C 588.605469 15.398438 720.417969 149.171875 720.417969 313.152344 C 720.417969 432.546875 649.769531 540.757812 540.441406 588.820312 Z M 540.441406 588.820312 " fill-opacity="1" fill-rule="nonzero"/></g></svg>